<svg width="22" height="24" viewBox="0 0 22 24" fill="none" xmlns="http://www.w3.org/2000/svg">
<path d="M18.725 10.56V10.71H18.875H21C21.4761 10.71 21.85 11.0776 21.85 11.52V23.04C21.85 23.4824 21.4761 23.85 21 23.85H1C0.523888 23.85 0.15 23.4824 0.15 23.04V11.52C0.15 11.0776 0.523888 10.71 1 10.71H3.125H3.275V10.56V3.84C3.275 1.80756 4.99264 0.15 7.125 0.15H14.875C17.0074 0.15 18.725 1.80756 18.725 3.84V10.56ZM16.625 10.71H16.775V10.56V3.84C16.775 2.82445 15.9176 2.01 14.875 2.01H7.125C6.08236 2.01 5.225 2.82445 5.225 3.84V10.56V10.71H5.375H16.625ZM19.75 21.99H19.9V21.84V12.72V12.57H19.75H2.25H2.1V12.72V21.84V21.99H2.25H19.75ZM10.275 17.67V17.5912L10.2101 17.5465C9.97793 17.3865 9.80569 17.1606 9.71696 16.9022C9.62827 16.6438 9.62725 16.3654 9.71404 16.1065C9.80085 15.8475 9.97142 15.6205 10.2024 15.4589C10.4335 15.2972 10.7127 15.2097 11 15.2097C11.2873 15.2097 11.5665 15.2972 11.7976 15.4589C12.0286 15.6205 12.1991 15.8475 12.286 16.1065C12.3727 16.3654 12.3717 16.6438 12.283 16.9022C12.1943 17.1606 12.0221 17.3865 11.7899 17.5465L11.725 17.5912V17.67V19.26C11.725 19.3034 11.6855 19.35 11.625 19.35H10.375C10.3145 19.35 10.275 19.3034 10.275 19.26V17.67Z" fill="#C4C4C4" stroke="white" stroke-width="0.3"/>
</svg>
