<svg width="139" height="46" viewBox="0 0 139 46" fill="none" xmlns="http://www.w3.org/2000/svg">
<path d="M24.6927 39.7603L25.2091 39.3847C25.6159 39.0991 26.0807 38.9068 26.5704 38.8214C27.1807 38.8214 27.7909 39.3378 28.4951 40.4174C28.8434 40.8821 29.0548 41.435 29.1053 42.0135C29.1126 42.3783 28.9779 42.7317 28.7298 42.9993C28.4756 43.284 28.1738 43.5223 27.8379 43.7034C27.5093 43.8912 27.1807 44.1259 26.8521 44.3137C26.2324 44.6169 25.5887 44.8681 24.9274 45.0647C24.0147 45.3501 23.0669 45.508 22.1109 45.5342C21.1911 45.5247 20.2762 45.3985 19.3882 45.1586C18.391 44.8813 17.4298 44.4874 16.5248 43.9851C15.5493 43.4332 14.663 42.7368 13.896 41.9196C13.0535 41.0261 12.399 39.9726 11.9713 38.8214C11.4531 37.5068 11.1979 36.1033 11.2203 34.6905C11.1928 33.3077 11.4484 31.9338 11.9713 30.6534C12.3946 29.5388 13.0326 28.5181 13.849 27.6491C14.6093 26.8501 15.4978 26.1837 16.4778 25.6775C18.1758 24.6897 20.0997 24.1562 22.0639 24.1284C22.9873 24.1346 23.9048 24.277 24.7866 24.5509C25.5184 24.7577 26.2265 25.0409 26.899 25.3959L27.6031 25.7714C27.8791 25.9276 28.1456 26.1001 28.4012 26.2878C28.6065 26.4637 28.7746 26.679 28.8955 26.9208C29.0164 27.1627 29.0878 27.4262 29.1053 27.6961C29.0853 28.2812 28.8705 28.8429 28.4951 29.2921C27.744 30.3248 27.0868 30.8412 26.5235 30.8412C25.9913 30.7764 25.4875 30.5651 25.0683 30.231C24.1527 29.5383 23.0229 29.1894 21.8762 29.2452C20.554 29.2791 19.2748 29.7218 18.2147 30.5126C17.603 30.9796 17.1187 31.5931 16.8064 32.2964C16.4166 33.1002 16.2235 33.9852 16.2431 34.8783C16.2294 35.7708 16.4222 36.6544 16.8064 37.4601C17.1325 38.1684 17.6332 38.7822 18.2616 39.2439C18.9908 39.8252 19.8492 40.2226 20.7643 40.4023C21.6794 40.5821 22.6243 40.539 23.5192 40.2766C23.9354 40.1681 24.3315 39.9938 24.6927 39.7603Z" fill="#333333"/>
<path d="M38.7284 24.1284C40.1099 24.1389 41.4756 24.4218 42.7475 24.9609C44.0194 25.5001 45.1725 26.2849 46.1405 27.2704C47.1086 28.2559 47.8727 29.4228 48.3891 30.7041C48.9054 31.9854 49.1639 33.356 49.1497 34.7374C49.2102 37.5919 48.1483 40.3561 46.1923 42.436C45.2772 43.4561 44.1546 44.2687 42.8996 44.8193C41.6447 45.3698 40.2865 45.6456 38.9162 45.628C37.536 45.649 36.1668 45.3799 34.8973 44.8381C33.6277 44.2963 32.4861 43.4939 31.5463 42.4829C30.5631 41.507 29.7863 40.3434 29.2621 39.0611C28.7379 37.7788 28.477 36.4042 28.495 35.0191C28.4804 33.5067 28.7676 32.0065 29.34 30.6065C29.8314 29.3345 30.5757 28.1753 31.5277 27.1991C32.4798 26.2228 33.6199 25.4497 34.8792 24.9265C36.0976 24.4108 37.4055 24.1397 38.7284 24.1284ZM33.5648 34.8783C33.5413 35.6426 33.675 36.4036 33.9576 37.1142C34.2402 37.8248 34.6657 38.4697 35.2078 39.0092C35.6833 39.5027 36.2514 39.8978 36.8797 40.1716C37.5079 40.4455 38.184 40.5928 38.8693 40.6052C39.5517 40.6018 40.2266 40.4631 40.8551 40.1972C41.4836 39.9313 42.0531 39.5435 42.5308 39.0561C43.08 38.522 43.5103 37.878 43.7935 37.1661C44.0766 36.4543 44.2062 35.6906 44.1738 34.9252C44.2062 34.1598 44.0766 33.3961 43.7935 32.6843C43.5103 31.9724 43.08 31.3283 42.5308 30.7943C42.0531 30.3069 41.4836 29.9191 40.8551 29.6532C40.2266 29.3873 39.5517 29.2486 38.8693 29.2452C38.1823 29.2469 37.503 29.3895 36.8732 29.664C36.2435 29.9385 35.6767 30.3391 35.2078 30.8412C34.0812 31.827 33.5648 33.1883 33.5648 34.8783Z" fill="#333333"/>
<path d="M81.8686 25.4895C81.8125 25.2509 81.6808 25.0368 81.4931 24.8793C81.27 24.7158 81.0135 24.6035 80.742 24.5507C80.3123 24.4441 79.8701 24.3967 79.4276 24.4098C78.9662 24.3894 78.5049 24.4531 78.0663 24.5976C77.8939 24.6435 77.7335 24.726 77.5958 24.8394C77.4581 24.9528 77.3464 25.0945 77.2683 25.2548C77.0445 25.7555 76.9477 26.3038 76.9866 26.8509V36.474C75.6253 34.7372 72.9496 31.1226 68.9595 25.6773C68.8775 25.5581 68.7831 25.4479 68.6778 25.3487C68.6064 25.1941 68.5114 25.0515 68.3961 24.9262C68.173 24.7627 67.9166 24.6505 67.6451 24.5976C67.2154 24.4911 66.7732 24.4437 66.3307 24.4568H66.2368C65.76 24.4368 65.2834 24.5004 64.8285 24.6446C64.6562 24.6905 64.4957 24.7729 64.358 24.8863C64.2203 24.9997 64.1086 25.1414 64.0305 25.3018C63.8067 25.8025 63.71 26.3507 63.7489 26.8978V36.3802C62.3875 34.5963 59.7588 31.0287 55.8625 25.7712C55.6588 25.5078 55.4394 25.257 55.2053 25.0201C54.9938 24.8556 54.7556 24.7286 54.5012 24.6446C54.0555 24.5385 53.5979 24.4911 53.1399 24.5037C52.6631 24.4838 52.1865 24.5473 51.7316 24.6915C51.5593 24.7374 51.3988 24.8199 51.2611 24.9333C51.1234 25.0467 51.0117 25.1883 50.9336 25.3487C50.7098 25.8494 50.6131 26.3977 50.6519 26.9447V42.7174C50.6391 43.0467 50.6548 43.3765 50.6989 43.7032C50.7587 43.965 50.8534 44.2176 50.9805 44.4542C51.2622 44.9706 51.9663 45.2053 53.1399 45.2053C54.3134 45.2053 55.1115 44.9706 55.3462 44.4542C55.4733 44.2176 55.568 43.965 55.6278 43.7032C55.6734 43.3767 55.6891 43.0467 55.6748 42.7174V33.3758C57.0361 35.1127 59.8057 38.8212 64.0775 44.5481V44.5951C64.1834 44.7547 64.329 44.8841 64.4999 44.9706C64.5938 45.0175 64.6408 45.0645 64.7346 45.1114C65.0499 45.2263 65.3856 45.2742 65.7204 45.2523H66.2368C67.4573 45.2523 68.2084 45.0175 68.4431 44.5012C68.5702 44.2646 68.6649 44.0119 68.7247 43.7501C68.7703 43.4236 68.786 43.0937 68.7717 42.7643V33.5167C70.18 35.3005 72.9026 38.962 77.0805 44.5012C77.2712 44.7382 77.5115 44.9305 77.7846 45.0645C78.2886 45.2048 78.8108 45.2681 79.3337 45.2523C80.5542 45.2523 81.3053 45.0175 81.54 44.5012C81.6671 44.2646 81.7618 44.0119 81.8217 43.7501C81.8672 43.4236 81.8829 43.0937 81.8686 42.7643V26.9447C82.0378 26.4744 82.0378 25.9598 81.8686 25.4895Z" fill="#333333"/>
<path d="M89.1446 40.23H97.9228C98.2521 40.2172 98.582 40.2329 98.9086 40.277C99.1704 40.3368 99.423 40.4315 99.6597 40.5586C100.176 40.8403 100.411 41.5444 100.411 42.7649C100.411 44.0793 100.082 44.8773 99.378 45.112C98.8888 45.2459 98.383 45.3092 97.8758 45.2998H86.6097C85.2953 45.2998 84.4973 44.9243 84.2626 44.2201C84.1279 43.7471 84.0646 43.2566 84.0748 42.7649V26.8984C84.0748 25.9126 84.2626 25.2554 84.6381 24.9268C85.0136 24.5982 85.6708 24.4104 86.7036 24.4104H97.9228C98.2521 24.3976 98.582 24.4133 98.9086 24.4574C99.1704 24.5172 99.423 24.612 99.6597 24.739C100.176 25.0207 100.411 25.7248 100.411 26.9453C100.411 28.2597 100.082 29.0577 99.378 29.2925C98.8888 29.4264 98.383 29.4896 97.8758 29.4802H89.1446V32.3437H94.7777C95.107 32.3309 95.4368 32.3466 95.7634 32.3907C96.0253 32.4505 96.2779 32.5452 96.5145 32.6723C97.0309 32.954 97.2656 33.6581 97.2656 34.8786C97.2656 36.193 96.8901 36.991 96.1859 37.2257C95.6967 37.3596 95.1909 37.4228 94.6838 37.4135H89.0976V40.23H89.1446Z" fill="#333333"/>
<path d="M113.273 39.7603L113.789 39.3847C114.196 39.0991 114.661 38.9068 115.151 38.8214C115.761 38.8214 116.371 39.3378 117.075 40.4174C117.424 40.8821 117.635 41.435 117.686 42.0135C117.693 42.3783 117.558 42.7317 117.31 42.9993C117.056 43.284 116.754 43.5223 116.418 43.7034C116.09 43.8912 115.761 44.1259 115.432 44.3137C114.813 44.6169 114.169 44.8681 113.508 45.0647C112.595 45.3501 111.647 45.508 110.691 45.5342C109.771 45.5247 108.857 45.3985 107.969 45.1586C106.971 44.8813 106.01 44.4874 105.105 43.9851C104.13 43.4332 103.243 42.7368 102.476 41.9196C101.634 41.0261 100.979 39.9726 100.552 38.8214C100.033 37.5068 99.7782 36.1033 99.8006 34.6905C99.7731 33.3077 100.029 31.9338 100.552 30.6534C100.975 29.5388 101.613 28.5181 102.429 27.6491C103.19 26.8501 104.078 26.1837 105.058 25.6775C106.756 24.6897 108.68 24.1562 110.644 24.1284C111.568 24.1346 112.485 24.277 113.367 24.5509C114.099 24.7577 114.807 25.0409 115.479 25.3959L116.183 25.7714C116.459 25.9276 116.726 26.1001 116.981 26.2878C117.209 26.4351 117.397 26.6364 117.528 26.874C117.659 27.1115 117.73 27.3778 117.733 27.6491C117.713 28.2343 117.498 28.796 117.122 29.2452C116.371 30.2779 115.714 30.7943 115.151 30.7943C114.619 30.7295 114.115 30.5182 113.696 30.184C112.78 29.4913 111.65 29.1424 110.503 29.1982C109.181 29.2321 107.902 29.6749 106.842 30.4657C106.23 30.9327 105.746 31.5461 105.434 32.2495C105.044 33.0532 104.851 33.9382 104.87 34.8313C104.857 35.7238 105.049 36.6074 105.434 37.4131C105.76 38.1215 106.26 38.7353 106.889 39.1969C107.618 39.7783 108.476 40.1756 109.392 40.3554C110.307 40.5351 111.252 40.492 112.146 40.2297C112.548 40.1462 112.931 39.9869 113.273 39.7603Z" fill="#333333"/>
<path d="M121.159 24.3632H136.979C137.429 24.3411 137.878 24.4213 138.293 24.5979C138.426 24.6641 138.545 24.7563 138.642 24.8692C138.738 24.9821 138.811 25.1134 138.856 25.2551C138.961 25.6372 139.009 26.0327 138.997 26.4287C139.012 26.8248 138.964 27.2208 138.856 27.6022C138.826 27.7314 138.768 27.8525 138.687 27.9577C138.606 28.0629 138.504 28.1497 138.387 28.2125C137.927 28.4051 137.429 28.4855 136.932 28.4472H131.486V42.7646C131.499 43.094 131.484 43.4238 131.44 43.7504C131.397 43.9956 131.318 44.233 131.205 44.4546C131.131 44.5998 131.025 44.7261 130.895 44.8238C130.765 44.9215 130.614 44.9879 130.454 45.0179C129.994 45.1391 129.521 45.2022 129.045 45.2056C128.568 45.2332 128.09 45.1695 127.637 45.0179C127.327 44.9266 127.061 44.7266 126.886 44.4546C126.751 44.2256 126.671 43.9686 126.651 43.7035C126.607 43.3768 126.592 43.047 126.604 42.7177V28.4942H121.112C120.662 28.5163 120.213 28.4361 119.798 28.2594C119.665 28.1933 119.546 28.101 119.449 27.9881C119.353 27.8752 119.28 27.744 119.235 27.6022C119.047 26.8311 119.047 26.0262 119.235 25.2551C119.265 25.126 119.323 25.0049 119.404 24.8997C119.485 24.7945 119.587 24.7076 119.704 24.6449C120.157 24.4288 120.658 24.3318 121.159 24.3632Z" fill="#333333"/>
<path d="M26.0542 10.0456C27.1455 11.2745 27.7469 12.8617 27.7441 14.5052C27.7329 16.2965 27.0259 18.0134 25.7725 19.2933C25.1793 19.9132 24.4646 20.4041 23.673 20.7352C22.8815 21.0664 22.0301 21.2307 21.1722 21.2179H13.7083C12.394 21.2179 11.5959 20.8424 11.3612 20.1382C11.2273 19.649 11.1641 19.1432 11.1735 18.6361V2.86346C11.1576 2.53412 11.1733 2.20401 11.2204 1.87767C11.288 1.61821 11.3824 1.3665 11.5021 1.12659C11.7837 0.610225 12.4878 0.375514 13.7083 0.375514H20.8905C21.7059 0.357236 22.5161 0.5108 23.2682 0.826219C24.0204 1.14164 24.6977 1.61185 25.2562 2.20627C25.8482 2.78632 26.3158 3.48088 26.6306 4.24759C26.9453 5.0143 27.1006 5.8371 27.0869 6.66579C27.1376 7.87714 26.7733 9.0695 26.0542 10.0456ZM22.7213 14.2235C22.7337 13.8583 22.6861 13.4936 22.5805 13.1438C22.5418 13.0174 22.4754 12.9012 22.386 12.8037C22.2967 12.7063 22.1867 12.63 22.0641 12.5805C21.5502 12.4084 21.0098 12.3289 20.468 12.3458C19.9261 12.374 19.3878 12.2435 18.9189 11.9703C18.5904 11.6886 18.4026 11.1723 18.4026 10.3273C18.4026 9.48233 18.5904 8.96597 18.9189 8.68431C19.2475 8.40266 19.8578 8.30877 20.6558 8.30877C21.4538 8.30877 21.8763 8.121 22.0171 7.69852C22.0858 7.3587 22.1173 7.01242 22.111 6.66579C22.1338 6.47392 22.1018 6.27951 22.0188 6.10506C21.9357 5.93061 21.8049 5.78324 21.6416 5.68C21.2036 5.4684 20.719 5.37149 20.2333 5.39835H16.2432V16.1951H20.8905C22.111 16.1481 22.7213 15.491 22.7213 14.2235Z" fill="#333333"/>
<path d="M29.6217 2.86359C29.6089 2.53425 29.6246 2.20442 29.6687 1.8778C29.7285 1.61596 29.8232 1.36334 29.9503 1.12672C30.232 0.610353 30.9361 0.375641 32.1566 0.375641C33.471 0.375641 34.269 0.704237 34.5037 1.40837C34.6166 1.90071 34.664 2.40579 34.6446 2.91053V18.7301C34.6604 19.0594 34.6447 19.3896 34.5976 19.7159C34.5301 19.9753 34.4357 20.2271 34.316 20.467C34.0343 20.9833 33.3302 21.2181 32.1097 21.2181C30.7953 21.2181 29.9973 20.8425 29.7626 20.1384C29.6279 19.6654 29.5646 19.1749 29.5748 18.6832V2.86359H29.6217Z" fill="#333333"/>
<path d="M47.7883 8.63757H52.8111C53.8438 8.68452 54.4541 8.91923 54.6888 9.43559C54.9028 9.93929 54.9991 10.4851 54.9704 11.0316V17.275C54.9374 17.9349 54.6516 18.5569 54.1724 19.0118C52.5764 20.6548 50.1823 21.4998 46.9902 21.4998C45.6082 21.5041 44.2401 21.2228 42.9719 20.6735C41.7036 20.1242 40.5626 19.3188 39.6203 18.3077C38.603 17.2939 37.8002 16.0856 37.2599 14.7549C36.7195 13.4242 36.4526 11.9983 36.4752 10.5622C36.4469 9.14898 36.7166 7.74564 37.2666 6.4435C37.8165 5.14137 38.6345 3.96962 39.6672 3.00449C41.6833 1.06205 44.3785 -0.0159978 47.178 0.000179469C49.4749 0.0227231 51.701 0.797739 53.5152 2.20647C53.7358 2.33877 53.92 2.52391 54.0511 2.74519C54.1822 2.96646 54.2562 3.21691 54.2663 3.47391C54.2103 4.0593 53.9815 4.61483 53.6091 5.06995C52.858 6.05574 52.2008 6.57211 51.5906 6.57211C51.2151 6.57211 50.6517 6.29046 49.8537 5.77409C48.9989 5.23135 48.0026 4.95369 46.9902 4.97607C45.5641 4.97578 44.19 5.51201 43.141 6.47823C42.587 6.98117 42.149 7.59848 41.8572 8.28743C41.5654 8.97639 41.4268 9.72052 41.451 10.4683C41.4339 11.243 41.5749 12.0131 41.8655 12.7314C42.156 13.4498 42.59 14.1013 43.141 14.6462C43.6333 15.1791 44.2278 15.6075 44.8891 15.9059C45.5504 16.2043 46.2649 16.3666 46.9902 16.3831C47.9531 16.3883 48.9084 16.2131 49.8068 15.8667V12.7685H47.5536C47.1184 12.7918 46.684 12.7113 46.2861 12.5338C46.1653 12.4643 46.0609 12.3697 45.9799 12.2563C45.8989 12.1429 45.8432 12.0134 45.8167 11.8766C45.7308 11.4917 45.6992 11.0967 45.7228 10.703C45.7118 10.2916 45.7593 9.88068 45.8636 9.48254C45.8943 9.35342 45.952 9.23227 46.0329 9.12708C46.1138 9.02189 46.2161 8.93505 46.333 8.87229C46.8019 8.71463 47.2936 8.63533 47.7883 8.63757Z" fill="#333333"/>
<path d="M16.8534 8.35581C17.2408 8.55032 17.5629 8.85399 17.7798 9.22937C17.9966 9.60475 18.0989 10.0354 18.0739 10.4682C18.1133 10.8912 18.0218 11.3161 17.812 11.6855C17.6021 12.0549 17.2839 12.351 16.9003 12.5337L3.94425 20.2322C2.91151 20.8894 2.11349 20.9833 1.4563 20.4669C1.11588 20.145 0.816334 19.7823 0.564397 19.3873C0.28007 18.9453 0.0884298 18.4503 0.00108848 17.9321C-0.00935575 17.654 0.0555199 17.3783 0.188858 17.134C0.546753 16.6863 0.994503 16.3185 1.50324 16.0544L10.8917 10.5152L1.50324 4.97596C1.12771 4.69431 0.892993 4.50654 0.705224 4.36571C0.507891 4.22782 0.345644 4.04557 0.231509 3.8336C0.117374 3.62164 0.0545328 3.38586 0.0480308 3.14521C0.0919134 2.62376 0.269784 2.12248 0.564397 1.69C1.17465 0.657266 1.7849 0.1409 2.30126 0.1409C2.88954 0.177912 3.45702 0.372478 3.94425 0.704208L16.8534 8.35581Z" fill="#21A79C"/>
</svg>
