<svg viewBox="0 0 192 63" fill="none" xmlns="http://www.w3.org/2000/svg">
<path d="M33.9308 54.6352L34.6403 54.1192C35.1994 53.7267 35.8381 53.4624 36.5109 53.3451C37.3495 53.3451 38.1881 54.0547 39.1556 55.5383C39.6343 56.1768 39.9247 56.9364 39.9942 57.7314C40.0042 58.2327 39.8192 58.7184 39.4781 59.086C39.1289 59.4772 38.7142 59.8047 38.2526 60.0536C37.801 60.3116 37.3495 60.6341 36.898 60.8921C36.0465 61.3087 35.1619 61.654 34.2533 61.9242C32.999 62.3162 31.6966 62.5333 30.383 62.5692C29.1191 62.5562 27.862 62.3828 26.6418 62.0532C25.2714 61.6721 23.9507 61.1308 22.707 60.4406C21.3666 59.6823 20.1487 58.7254 19.0948 57.6024C17.9371 56.3747 17.0378 54.9269 16.4501 53.3451C15.7379 51.5388 15.3873 49.6102 15.418 47.6687C15.3803 45.7686 15.7315 43.8808 16.4501 42.1214C17.0318 40.5897 17.9084 39.1871 19.0303 37.9931C20.075 36.8951 21.2959 35.9795 22.6425 35.2839C24.9758 33.9266 27.6195 33.1934 30.3185 33.1553C31.5874 33.1637 32.848 33.3594 34.0598 33.7358C35.0654 34.02 36.0383 34.4091 36.9625 34.8969L37.93 35.4129C38.3093 35.6276 38.6754 35.8645 39.0266 36.1225C39.3088 36.3642 39.5397 36.66 39.7059 36.9923C39.872 37.3246 39.9701 37.6868 39.9942 38.0576C39.9667 38.8616 39.6716 39.6335 39.1556 40.2507C38.1235 41.6698 37.2205 42.3794 36.4464 42.3794C35.7151 42.2903 35.0229 42 34.4468 41.5408C33.1887 40.589 31.6362 40.1095 30.0605 40.1862C28.2437 40.2328 26.486 40.8413 25.0292 41.9279C24.1887 42.5696 23.5232 43.4126 23.094 44.379C22.5584 45.4835 22.2931 46.6995 22.32 47.9268C22.3012 49.1532 22.5661 50.3674 23.094 51.4745C23.5421 52.4478 24.2302 53.2913 25.0937 53.9257C26.0957 54.7245 27.2752 55.2705 28.5326 55.5175C29.79 55.7645 31.0884 55.7052 32.3182 55.3448C32.8901 55.1957 33.4345 54.9561 33.9308 54.6352Z" fill="white"/>
<path d="M53.2176 33.1553C55.1158 33.1696 56.9925 33.5583 58.7403 34.2992C60.488 35.0401 62.0724 36.1185 63.4026 37.4727C64.7329 38.8269 65.7829 40.4303 66.4924 42.191C67.2019 43.9517 67.5571 45.8351 67.5375 47.7332C67.6207 51.6556 66.1615 55.454 63.4737 58.312C62.2164 59.7137 60.6737 60.8304 58.9492 61.5869C57.2248 62.3434 55.3585 62.7223 53.4756 62.6982C51.579 62.727 49.6976 62.3572 47.9531 61.6127C46.2085 60.8683 44.6398 59.7657 43.3484 58.3765C41.9974 57.0355 40.93 55.4365 40.2097 53.6745C39.4894 51.9125 39.1309 50.0236 39.1556 48.1203C39.1355 46.042 39.5302 43.9806 40.3167 42.0569C40.992 40.309 42.0147 38.7162 43.3229 37.3747C44.6312 36.0332 46.1978 34.9708 47.9282 34.2518C49.6025 33.5433 51.3996 33.1707 53.2176 33.1553ZM46.1221 47.9268C46.0898 48.9771 46.2736 50.0228 46.6619 50.9992C47.0502 51.9756 47.6349 52.8619 48.3797 53.6031C49.0331 54.2814 49.8138 54.8241 50.6771 55.2005C51.5404 55.5768 52.4695 55.7792 53.4111 55.7963C54.3488 55.7915 55.2762 55.601 56.1398 55.2356C57.0034 54.8702 57.786 54.3373 58.4424 53.6676C59.1972 52.9338 59.7884 52.0488 60.1775 51.0706C60.5665 50.0924 60.7446 49.043 60.7001 47.9913C60.7446 46.9395 60.5665 45.8901 60.1775 44.912C59.7884 43.9338 59.1972 43.0488 58.4424 42.3149C57.786 41.6452 57.0034 41.1123 56.1398 40.7469C55.2762 40.3816 54.3488 40.191 53.4111 40.1862C52.4671 40.1887 51.5336 40.3845 50.6683 40.7617C49.8029 41.1389 49.024 41.6895 48.3797 42.3794C46.8316 43.734 46.1221 45.6046 46.1221 47.9268Z" fill="white"/>
<path d="M112.497 35.0258C112.42 34.698 112.239 34.4038 111.981 34.1873C111.674 33.9626 111.322 33.8084 110.949 33.7357C110.358 33.5893 109.751 33.5242 109.143 33.5422C108.509 33.5142 107.875 33.6016 107.272 33.8002C107.035 33.8633 106.815 33.9767 106.626 34.1325C106.436 34.2883 106.283 34.483 106.176 34.7033C105.868 35.3914 105.735 36.1447 105.789 36.8964V50.1198C103.918 47.7332 100.241 42.7663 94.7583 35.2838C94.6456 35.12 94.5159 34.9687 94.3713 34.8323C94.2732 34.6199 94.1426 34.424 93.9842 34.2518C93.6777 34.0271 93.3252 33.8729 92.9522 33.8002C92.3617 33.6538 91.7541 33.5887 91.146 33.6067H91.017C90.3619 33.5793 89.707 33.6666 89.0819 33.8647C88.8451 33.9279 88.6246 34.0412 88.4354 34.197C88.2462 34.3528 88.0927 34.5475 87.9853 34.7678C87.6778 35.4559 87.5449 36.2092 87.5983 36.9609V49.9908C85.7277 47.5397 82.1154 42.6373 76.7616 35.4128C76.4817 35.0509 76.1801 34.7062 75.8585 34.3808C75.5678 34.1548 75.2406 33.9803 74.891 33.8647C74.2785 33.7189 73.6496 33.6539 73.0203 33.6712C72.3652 33.6438 71.7103 33.7311 71.0852 33.9292C70.8484 33.9924 70.6279 34.1057 70.4387 34.2615C70.2495 34.4173 70.096 34.612 69.9886 34.8323C69.6811 35.5204 69.5482 36.2737 69.6016 37.0255V58.6989C69.584 59.1514 69.6056 59.6047 69.6661 60.0535C69.7483 60.4133 69.8785 60.7604 70.0531 61.0856C70.4402 61.7951 71.4077 62.1176 73.0203 62.1176C74.6329 62.1176 75.7295 61.7951 76.052 61.0856C76.2267 60.7604 76.3568 60.4133 76.4391 60.0535C76.5016 59.6049 76.5232 59.1515 76.5036 58.6989V45.8625C78.3742 48.2492 82.1799 53.345 88.0498 61.2146V61.2791C88.1955 61.4984 88.3955 61.6762 88.6304 61.7951C88.7594 61.8596 88.8239 61.9241 88.9529 61.9886C89.3861 62.1464 89.8474 62.2123 90.3075 62.1821H91.017C92.6941 62.1821 93.7262 61.8596 94.0487 61.1501C94.2234 60.8249 94.3535 60.4778 94.4358 60.118C94.4983 59.6694 94.5199 59.216 94.5003 58.7634V46.0561C96.4354 48.5072 100.177 53.5386 105.918 61.1501C106.18 61.4757 106.51 61.74 106.885 61.9241C107.578 62.1169 108.295 62.2039 109.014 62.1821C110.691 62.1821 111.723 61.8596 112.045 61.1501C112.22 60.8249 112.35 60.4778 112.432 60.118C112.495 59.6694 112.517 59.216 112.497 58.7634V37.0255C112.729 36.3792 112.729 35.6721 112.497 35.0258Z" fill="white"/>
<path d="M122.495 55.28H134.557C135.01 55.2624 135.463 55.284 135.912 55.3445C136.272 55.4267 136.619 55.5569 136.944 55.7316C137.654 56.1186 137.976 57.0861 137.976 58.7633C137.976 60.5694 137.525 61.6659 136.557 61.9885C135.885 62.1725 135.19 62.2593 134.493 62.2465H119.012C117.206 62.2465 116.109 61.7304 115.787 60.7629C115.602 60.1129 115.515 59.4389 115.529 58.7633V36.9608C115.529 35.6062 115.787 34.7031 116.303 34.2516C116.819 33.8001 117.722 33.5421 119.141 33.5421H134.557C135.01 33.5245 135.463 33.546 135.912 33.6066C136.272 33.6888 136.619 33.819 136.944 33.9936C137.654 34.3806 137.976 35.3482 137.976 37.0253C137.976 38.8314 137.525 39.928 136.557 40.2505C135.885 40.4345 135.19 40.5214 134.493 40.5085H122.495V44.4433H130.236C130.688 44.4257 131.141 44.4473 131.59 44.5078C131.95 44.59 132.297 44.7202 132.622 44.8948C133.332 45.2819 133.654 46.2494 133.654 47.9265C133.654 49.7327 133.138 50.8292 132.171 51.1517C131.499 51.3357 130.803 51.4226 130.107 51.4098H122.431V55.28H122.495Z" fill="white"/>
<path d="M155.65 54.6352L156.36 54.1192C156.919 53.7267 157.558 53.4624 158.231 53.3451C159.069 53.3451 159.908 54.0547 160.875 55.5383C161.354 56.1768 161.644 56.9364 161.714 57.7314C161.724 58.2327 161.539 58.7184 161.198 59.086C160.848 59.4772 160.434 59.8047 159.972 60.0536C159.521 60.3116 159.069 60.6341 158.618 60.8921C157.766 61.3087 156.881 61.654 155.973 61.9242C154.719 62.3162 153.416 62.5333 152.103 62.5692C150.839 62.5562 149.582 62.3828 148.361 62.0532C146.991 61.6721 145.67 61.1308 144.427 60.4406C143.086 59.6823 141.868 58.7254 140.814 57.6024C139.657 56.3747 138.757 54.9269 138.17 53.3451C137.458 51.5388 137.107 49.6102 137.138 47.6687C137.1 45.7686 137.451 43.8808 138.17 42.1214C138.751 40.5897 139.628 39.1871 140.75 37.9931C141.795 36.8951 143.016 35.9795 144.362 35.2839C146.695 33.9266 149.339 33.1934 152.038 33.1553C153.307 33.1637 154.568 33.3594 155.779 33.7358C156.785 34.02 157.758 34.4091 158.682 34.8969L159.65 35.4129C160.029 35.6276 160.395 35.8645 160.746 36.1225C161.059 36.3248 161.317 36.6016 161.498 36.928C161.678 37.2544 161.774 37.6203 161.778 37.9931C161.751 38.7971 161.456 39.569 160.94 40.1862C159.908 41.6053 159.005 42.3149 158.231 42.3149C157.499 42.2258 156.807 41.9355 156.231 41.4763C154.973 40.5245 153.42 40.045 151.845 40.1217C150.028 40.1683 148.27 40.7767 146.813 41.8634C145.973 42.5051 145.307 43.348 144.878 44.3145C144.342 45.419 144.077 46.635 144.104 47.8623C144.085 49.0887 144.35 50.3028 144.878 51.41C145.326 52.3833 146.014 53.2268 146.878 53.8612C147.88 54.66 149.059 55.206 150.317 55.453C151.574 55.7 152.873 55.6407 154.102 55.2802C154.655 55.1656 155.18 54.9467 155.65 54.6352Z" fill="white"/>
<path d="M166.487 33.4777H188.225C188.844 33.4472 189.461 33.5575 190.031 33.8002C190.214 33.891 190.377 34.0178 190.51 34.173C190.643 34.3281 190.743 34.5085 190.805 34.7032C190.949 35.2282 191.014 35.7717 190.999 36.3158C191.019 36.8602 190.954 37.4044 190.805 37.9285C190.763 38.1059 190.684 38.2723 190.573 38.4169C190.461 38.5614 190.321 38.6808 190.16 38.767C189.529 39.0316 188.843 39.1422 188.161 39.0895H180.678V58.7633C180.696 59.2159 180.674 59.6691 180.613 60.1179C180.555 60.4548 180.447 60.781 180.291 61.0855C180.19 61.2851 180.044 61.4587 179.865 61.5929C179.686 61.7271 179.479 61.8184 179.259 61.8595C178.627 62.0262 177.977 62.1129 177.324 62.1176C176.668 62.1555 176.011 62.0679 175.389 61.8595C174.963 61.7341 174.596 61.4593 174.357 61.0855C174.171 60.7709 174.061 60.4177 174.034 60.0534C173.974 59.6046 173.952 59.1514 173.97 58.6988V39.154H166.423C165.804 39.1845 165.186 39.0742 164.616 38.8315C164.433 38.7406 164.271 38.6139 164.138 38.4587C164.005 38.3036 163.904 38.1232 163.842 37.9285C163.584 36.8689 163.584 35.7628 163.842 34.7032C163.885 34.5258 163.964 34.3593 164.075 34.2148C164.186 34.0703 164.327 33.9509 164.487 33.8647C165.11 33.5677 165.798 33.4345 166.487 33.4777Z" fill="white"/>
<path d="M35.8014 13.8036C37.301 15.4922 38.1275 17.6731 38.1236 19.9315C38.1081 22.393 37.1367 24.7522 35.4144 26.5109C34.5992 27.3627 33.6171 28.0373 32.5294 28.4923C31.4417 28.9474 30.2719 29.1732 29.093 29.1556H18.8368C17.0307 29.1556 15.9341 28.6396 15.6116 27.672C15.4276 26.9998 15.3407 26.3047 15.3536 25.6079V3.93441C15.3318 3.48185 15.3534 3.02825 15.4181 2.57982C15.5109 2.22329 15.6406 1.87741 15.8051 1.54775C16.1921 0.838199 17.1597 0.515677 18.8368 0.515677H28.7059C29.8264 0.490562 30.9396 0.701577 31.9732 1.135C33.0067 1.56842 33.9374 2.21454 34.7048 3.03135C35.5183 3.8284 36.1609 4.78281 36.5934 5.83637C37.0259 6.88992 37.2393 8.02053 37.2205 9.15925C37.2902 10.8238 36.7895 12.4622 35.8014 13.8036ZM31.2216 19.5444C31.2386 19.0427 31.1733 18.5415 31.0281 18.0608C30.975 17.8871 30.8837 17.7274 30.7609 17.5935C30.6382 17.4596 30.487 17.3548 30.3186 17.2868C29.6124 17.0503 28.8698 16.9411 28.1254 16.9643C27.3808 17.0031 26.641 16.8237 25.9968 16.4482C25.5452 16.0612 25.2872 15.3517 25.2872 14.1906C25.2872 13.0295 25.5452 12.32 25.9968 11.9329C26.4483 11.5459 27.2868 11.4169 28.3834 11.4169C29.48 11.4169 30.0605 11.1589 30.254 10.5783C30.3484 10.1114 30.3917 9.63556 30.3831 9.15925C30.4144 8.8956 30.3704 8.62846 30.2563 8.38874C30.1421 8.14903 29.9624 7.94652 29.738 7.80466C29.1361 7.51391 28.4703 7.38074 27.8029 7.41764H22.32V22.2536H28.7059C30.3831 22.1891 31.2216 21.2861 31.2216 19.5444Z" fill="white"/>
<path d="M40.7037 3.93435C40.6861 3.48181 40.7076 3.02859 40.7682 2.57976C40.8504 2.21996 40.9806 1.87284 41.1552 1.54769C41.5422 0.838147 42.5098 0.515625 44.1869 0.515625C45.993 0.515625 47.0896 0.967155 47.4121 1.93472C47.5672 2.61124 47.6323 3.30529 47.6056 3.99886V25.7368C47.6274 26.1894 47.6058 26.643 47.5411 27.0914C47.4483 27.4479 47.3186 27.7938 47.1541 28.1235C46.7671 28.833 45.7995 29.1555 44.1224 29.1555C42.3163 29.1555 41.2197 28.6395 40.8972 27.6719C40.7121 27.022 40.6251 26.348 40.6392 25.6723V3.93435H40.7037Z" fill="white"/>
<path d="M65.6668 11.869H72.5688C73.9879 11.9335 74.8264 12.2561 75.149 12.9656C75.443 13.6577 75.5753 14.4078 75.536 15.1588V23.7378C75.4906 24.6447 75.0979 25.4993 74.4394 26.1245C72.2463 28.3821 68.9565 29.5432 64.5703 29.5432C62.6711 29.5492 60.7912 29.1626 59.0485 28.4078C57.3058 27.653 55.7379 26.5462 54.4431 25.1569C53.0452 23.7638 51.9421 22.1035 51.1996 20.2749C50.4571 18.4464 50.0903 16.487 50.1213 14.5137C50.0825 12.5718 50.453 10.6434 51.2088 8.85413C51.9645 7.06484 53.0885 5.45472 54.5076 4.12852C57.2779 1.45938 60.9814 -0.0219829 64.8283 0.000246611C67.9844 0.0312242 71.0434 1.09619 73.5364 3.03195C73.8394 3.21375 74.0925 3.46815 74.2727 3.77221C74.4529 4.07627 74.5545 4.4204 74.5684 4.77357C74.4914 5.57796 74.1771 6.34132 73.6654 6.96671C72.6333 8.3213 71.7302 9.03085 70.8917 9.03085C70.3756 9.03085 69.6016 8.64382 68.505 7.93428C67.3304 7.18849 65.9613 6.80695 64.5703 6.8377C62.6105 6.83731 60.7224 7.57415 59.2809 8.90184C58.5197 9.59294 57.9178 10.4412 57.5169 11.3879C57.1159 12.3346 56.9255 13.3571 56.9587 14.3847C56.9352 15.4492 57.1289 16.5074 57.5282 17.4944C57.9275 18.4815 58.5239 19.3768 59.2809 20.1256C59.9574 20.8579 60.7743 21.4466 61.683 21.8566C62.5917 22.2666 63.5736 22.4896 64.5703 22.5122C65.8933 22.5194 67.206 22.2787 68.4405 21.8027V17.5454H65.3443C64.7464 17.5774 64.1495 17.4668 63.6027 17.2229C63.4367 17.1274 63.2932 16.9974 63.1819 16.8416C63.0706 16.6857 62.9941 16.5078 62.9576 16.3198C62.8396 15.791 62.7962 15.2481 62.8286 14.7072C62.8136 14.1419 62.8787 13.5772 63.0221 13.0301C63.0643 12.8527 63.1436 12.6862 63.2548 12.5417C63.3659 12.3971 63.5065 12.2778 63.6672 12.1916C64.3115 11.9749 64.9871 11.8659 65.6668 11.869Z" fill="white"/>
<path d="M23.1585 11.4816C23.6909 11.7489 24.1334 12.1662 24.4315 12.682C24.7295 13.1978 24.87 13.7896 24.8357 14.3843C24.8898 14.9656 24.7641 15.5495 24.4757 16.057C24.1873 16.5646 23.7501 16.9714 23.223 17.2225L5.41986 27.8012C4.00076 28.7043 2.90419 28.8333 2.00113 28.1237C1.53335 27.6813 1.12174 27.183 0.775547 26.6401C0.384849 26.0328 0.121513 25.3526 0.0014957 24.6405C-0.0128559 24.2584 0.0762908 23.8795 0.259513 23.5439C0.751302 22.9286 1.36656 22.4233 2.06563 22.0603L14.9665 14.4488L2.06563 6.8373C1.5496 6.45028 1.22708 6.19226 0.96906 5.99875C0.697902 5.80926 0.474955 5.55883 0.31812 5.26756C0.161286 4.9763 0.0749344 4.65232 0.066 4.32163C0.1263 3.60509 0.370715 2.91629 0.775547 2.322C1.6141 0.902907 2.45266 0.193359 3.16221 0.193359C3.97056 0.244219 4.75035 0.511576 5.41986 0.967411L23.1585 11.4816Z" fill="#6DEEE3"/>
</svg>
